<svg id="Слой_11" data-name="Слой 11" xmlns="http://www.w3.org/2000/svg" viewBox="0 0 300 300"><defs><style>.cls-1,.cls-2{fill:#fff;}.cls-1,.cls-3,.cls-4{stroke:#4b4847;stroke-width:2px;}.cls-1,.cls-3{stroke-miterlimit:22.93;}.cls-2{fill-rule:evenodd;}.cls-3,.cls-4{fill:none;}.cls-4{stroke-linecap:round;stroke-linejoin:round;}</style></defs><title>Монтажная область 1</title><polygon class="cls-1" points="88.7 216 84.01 244 91.66 244 102.84 216 88.7 216"/><polygon class="cls-1" points="212.49 216 217.18 244 209.53 244 198.35 216 212.49 216"/><path class="cls-2" d="M105,163h90.2c2.26,0,3.66-2.09,4.11-4.53l14.34-78.94c5.11-28.14-26.77-6.26-31-4.53H115c-4.19,0-33.74-24.68-28.43,4.53l14.34,78.94C101.33,160.89,102.73,163,105,163Z"/><path class="cls-3" d="M105,162h90.2c2.26,0,3.66-2.09,4.11-4.53l14.34-78.94c5.11-28.14-26.77-6.26-31-4.53H115c-4.19,0-33.74-24.68-28.43,4.53l14.34,78.94C101.33,159.89,102.73,162,105,162Z"/><line class="cls-4" x1="115.56" y1="83.73" x2="119.23" y2="149.68"/><line class="cls-4" x1="184.63" y1="83.73" x2="180.96" y2="149.68"/><path class="cls-1" d="M88.49,208H211.7c2,0,5.1-2.68,5.31-5.22l5.42-67.85a4.57,4.57,0,0,0-4.56-4.94H205.26a4.58,4.58,0,0,0-4.57,4.35L197.61,196H102.17l-3.07-61.45A4.85,4.85,0,0,0,94.33,130H81.91a4.57,4.57,0,0,0-4.56,4.94l5.42,67.85C83,205.57,86.25,208,88.49,208Z"/><path class="cls-2" d="M100.6,195h99c1.93,0,3.36-2.32,3.52-5.13l1.41-25.74c.15-2.81-1.58-5.13-3.52-5.13H99.19c-1.93,0-3.67,2.32-3.52,5.13l1.41,25.74C97.24,192.68,98.66,195,100.6,195Z"/><path class="cls-3" d="M100.6,196h99c1.93,0,3.36-2.32,3.52-5.13l1.41-25.74c.15-2.81-1.58-5.13-3.52-5.13H99.19c-1.93,0-3.67,2.32-3.52,5.13l1.41,25.74C97.24,193.68,98.66,196,100.6,196Z"/><rect class="cls-1" x="88" y="208" width="125" height="10"/></svg>
