<svg id="Слой_48" data-name="Слой 48" xmlns="http://www.w3.org/2000/svg" viewBox="0 0 300 300"><defs><style>.cls-1,.cls-2{fill:#fff;stroke:#4b4847;stroke-width:2px;}.cls-1{stroke-linecap:round;stroke-linejoin:round;}.cls-2{stroke-miterlimit:22.93;}</style></defs><title>Монтажная область 1</title><polygon class="cls-1" points="204.09 230 214 230 214 142 204 142 204.09 230"/><polygon class="cls-1" points="210.09 244 220 244 220 140 210 140 210.09 244"/><polygon class="cls-1" points="86.08 230 96 230 96 142 86 142 86.08 230"/><polygon class="cls-1" points="193.08 60 203 60 203 138 193 138 193.08 60"/><polygon class="cls-1" points="95.08 60 105 60 105 138 95 138 95.08 60"/><path class="cls-2" d="M191.82,44H104.18C94.73,44,87,51.29,87,60.2V98a6.2,6.2,0,0,0,6.35,6H202.65A6.2,6.2,0,0,0,209,98V60.2C209,51.29,201.27,44,191.82,44Z"/><polygon class="cls-1" points="80.08 244 90 244 90 140 80 140 80.08 244"/><path class="cls-2" d="M190.21,166.6a170.76,170.76,0,0,1-81,0C98,164,88.31,157.21,88.31,145.74h0a8.37,8.37,0,0,1,8.35-8.35c17.86,0,35.72,4.55,53.58,4.55,17.5,0,35-4.55,52.49-4.55a8.37,8.37,0,0,1,8.35,8.35h0C211.08,157.21,201.36,163.89,190.21,166.6Z"/></svg>
