<svg id="Шкафы-купе" xmlns="http://www.w3.org/2000/svg" viewBox="0 0 300 300"><defs><style>.cls-1,.cls-2,.cls-3{fill:#fff;}.cls-1,.cls-4,.cls-5{stroke:#4b4847;stroke-width:2px;}.cls-1,.cls-4{stroke-miterlimit:22.93;}.cls-2{fill-rule:evenodd;}.cls-4,.cls-5{fill:none;}.cls-5{stroke-linecap:round;stroke-linejoin:round;}</style></defs><title>Монтажная область 1</title><rect class="cls-1" x="53" y="72" width="28" height="162"/><path class="cls-1" d="M81,56.18c-13.51,0-28,.09-28,12.24V74.1c-.47-11.41,13.79-12.46,28-12.24Z"/><path class="cls-1" d="M53,74H79V61.82C65.87,61.64,53,62.45,53,74Z"/><path class="cls-2" d="M82,247.74c-13.51,0-27.91.61-28-9V233c-.31,9.64,13.74,8.88,28,9Z"/><path class="cls-1" d="M81,247.74c-13.51,0-27.91.61-28-9V233c-.31,9.64,13.74,8.88,28,9Z"/><path class="cls-1" d="M53,234H79v8.57C64.81,242.62,53.15,242.85,53,234Z"/><path class="cls-1" d="M89.15,110.49l-.29-5.22c-25.29.33-35.86-1.34-35.86,5.6v4.37C53,108.52,72.74,111.86,89.15,110.49Z"/><path class="cls-1" d="M53,116H79v-5.34C61.23,110.85,53.94,109.79,53,116Z"/><path class="cls-1" d="M89.06,195.41l-.29,5.22C63.55,200.3,53,202,53,195v-4.37C53,197.39,72.69,194,89.06,195.41Z"/><path class="cls-1" d="M53.09,192H79v4.28C61.29,196.13,54,197,53.09,192Z"/><rect class="cls-3" x="54" y="151" width="28" height="6"/><rect class="cls-4" x="53" y="150" width="28" height="6"/><rect class="cls-3" x="222" y="73" width="28" height="162"/><rect class="cls-4" x="221" y="72" width="28" height="162"/><path class="cls-1" d="M221,56.18c13.51,0,28,.09,28,12.24V74.1c.47-11.41-13.79-12.46-28-12.24Z"/><path class="cls-1" d="M249,74H223V61.82C236.13,61.64,249,62.45,249,74Z"/><path class="cls-2" d="M222,247.74c13,0,26.91.61,27-9V233c.3,9.65-13.24,8.89-27,9Z"/><path class="cls-1" d="M221,247.74c13.51,0,27.91.61,28-9V233c.31,9.64-13.73,8.88-28,9Z"/><path class="cls-1" d="M249,234H223v8.57C237.18,242.62,248.85,242.85,249,234Z"/><path class="cls-1" d="M212.85,110.49l.29-5.22c25.29.33,35.86-1.34,35.86,5.6v4.37C249,108.52,229.26,111.86,212.85,110.49Z"/><path class="cls-1" d="M212.85,196.23l.29,5.22c25.29-.33,35.86,1.34,35.86-5.6v-4.37C249,198.2,229.26,194.86,212.85,196.23Z"/><path class="cls-1" d="M249,192H223v4.28C240.77,196.13,248.06,197,249,192Z"/><rect class="cls-3" x="222" y="151" width="28" height="6"/><rect class="cls-4" x="221" y="150" width="28" height="6"/><path class="cls-1" d="M249,116H223v-5.34C240.77,110.85,248.06,109.79,249,116Z"/><rect class="cls-1" x="73" y="248" width="154" height="6"/><rect class="cls-1" x="71" y="56" width="160" height="192"/><rect class="cls-1" x="77" y="62" width="148" height="180"/><rect class="cls-1" x="121" y="62" width="52" height="180"/><line class="cls-5" x1="168.78" y1="209.74" x2="132.77" y2="231.28"/><line class="cls-5" x1="168.09" y1="199.15" x2="140.43" y2="215.69"/><line class="cls-5" x1="168.78" y1="220" x2="149.92" y2="231.28"/><line class="cls-5" x1="168.09" y1="188.22" x2="149.95" y2="199.07"/></svg>
